# xmcd
#
# Track frame offsets:
#	150
#	14067
#	26855
#	43003
#	57260
#	73027
#	94355
#	108253
#	126819
#	144448
#	156477
#	171600
#
# Disc length: 2505 seconds
# Revision: 0
# Processed by: cddbd v1.5.2PL0 Copyright (c) Steve Scherf et al.
# Submitted via: dBpowerAMP V12.0
#
DISCID=b509c70c
DTITLE=Niall Toner Band - There's a Better Way
DYEAR=2002
DGENRE=Country
TTITLE0=There's a Better Way
TTITLE1=Ocean of Teardrops
TTITLE2=Chainsaw Country Blues
TTITLE3=The Cheatin' Side of Town
TTITLE4=Tears Along the Tracks
TTITLE5=My Baby's Gone and Said Goodbye
TTITLE6=Drunken Daisy/You Gotta Have a Banjo in the Band
TTITLE7=The Master's Resting Place
TTITLE8=Bill Monroe's Mandolin
TTITLE9=The Straight and Narrow
TTITLE10=I Would Die
TTITLE11=Sweet Memoties of You
EXTD=
EXTT0=
EXTT1=
EXTT2=
EXTT3=
EXTT4=
EXTT5=
EXTT6=
EXTT7=
EXTT8=
EXTT9=
EXTT10=
EXTT11=
PLAYORDER=
